<svg width="133" height="31" viewBox="0 0 133 31" fill="none" xmlns="http://www.w3.org/2000/svg">
<path d="M10.0308 4.87061C9.99315 4.81773 9.95549 4.76486 9.90729 4.69629C9.89209 4.67192 9.88489 4.66823 9.87512 4.66954C9.85667 4.64247 9.83821 4.61539 9.80487 4.56957C9.63848 4.37064 9.48697 4.19046 9.33546 4.01028C9.33546 4.01028 9.3235 4.01036 9.32651 3.99679C9.17491 3.78642 9.02209 3.58816 8.86415 3.39406C8.83343 3.35631 8.7835 3.31115 8.74124 3.30991C8.57863 3.30514 8.41474 3.28108 8.25589 3.35711C7.3228 3.80371 6.4622 4.35697 5.69847 5.05882C4.44965 6.2064 3.54813 7.5795 3.0072 9.1871C2.84766 9.6612 2.70364 10.1403 2.64063 10.6393C2.63595 10.6568 2.63126 10.6743 2.62055 10.7155C2.61188 10.772 2.60924 10.8047 2.6066 10.8375C2.5998 10.867 2.59301 10.8965 2.57941 10.9536C2.56746 11.052 2.56232 11.1229 2.55717 11.1937C2.55334 11.2113 2.5495 11.2288 2.53974 11.2729C2.51867 11.4491 2.50353 11.5988 2.48839 11.7485C2.48557 12.2251 2.48274 12.7018 2.48098 13.21C2.49122 13.298 2.50039 13.3546 2.50957 13.4111C2.5127 13.4671 2.51583 13.5231 2.52156 13.6061C2.53295 13.6646 2.54174 13.6961 2.55052 13.7276C2.55468 13.7838 2.55884 13.84 2.56582 13.921C2.57564 13.9656 2.58264 13.9853 2.58964 14.0051C2.59234 14.0483 2.59504 14.0914 2.60036 14.1594C2.61094 14.204 2.61891 14.2238 2.62688 14.2436C2.64048 14.3393 2.65408 14.435 2.6714 14.558C2.68677 14.6161 2.69842 14.647 2.71007 14.6779C2.79 14.9892 2.84928 15.3076 2.9549 15.6099C3.09995 16.0251 3.28011 16.428 3.45453 16.8599C3.48657 16.9195 3.50932 16.9554 3.53207 16.9912C3.54922 17.0337 3.56637 17.0762 3.59057 17.1363C3.60092 17.1636 3.60772 17.1692 3.61802 17.1703C3.61802 17.1703 3.617 17.1734 3.6195 17.1864C3.64552 17.2337 3.66904 17.2681 3.69257 17.3024C3.91955 17.6648 4.14654 18.0273 4.38307 18.4043C4.39262 18.4189 4.40006 18.4268 4.40006 18.4268L4.41092 18.4263C4.41092 18.4263 4.41193 18.4357 4.41951 18.4498C4.49908 18.5523 4.57107 18.6406 4.64307 18.7289C4.67639 18.7753 4.70972 18.8217 4.75711 18.8865C4.99408 19.1462 5.21264 19.3917 5.44163 19.6269C5.56441 19.7531 5.70514 19.8618 5.83777 19.9784C5.84734 19.9906 5.85691 20.0028 5.88181 20.0303C5.92909 20.0661 5.96106 20.0867 5.99302 20.1072C6.00167 20.1177 6.01032 20.1282 6.03462 20.1533C6.24325 20.3127 6.43624 20.4574 6.62922 20.6021C6.69354 20.6485 6.75786 20.6949 6.84117 20.7552C6.8881 20.7862 6.91606 20.8033 6.94402 20.8204C7.01924 20.9156 6.95515 21.0116 6.93952 21.1308C6.93291 21.1751 6.93219 21.1959 6.93147 21.2167C6.89673 21.3778 6.86198 21.5389 6.82147 21.7243C6.81503 21.7695 6.81434 21.7902 6.81365 21.8109C6.76463 22.0376 6.71561 22.2643 6.66027 22.5155C6.65165 22.5611 6.64936 22.5822 6.64707 22.6032C6.64146 22.6206 6.63584 22.638 6.62392 22.6774C6.61567 22.7201 6.61374 22.741 6.6118 22.7618C6.58989 22.8562 6.56798 22.9506 6.53782 23.0728C6.51445 23.1675 6.50699 23.2375 6.48093 23.2998C6.46786 23.331 6.4209 23.3481 6.38926 23.3716C6.31959 23.3274 6.24992 23.2832 6.1591 23.2263C6.09169 23.1902 6.04543 23.1667 5.99917 23.1433C5.93471 23.0988 5.87024 23.0542 5.78638 22.9957C5.68456 22.9338 5.60215 22.8857 5.51973 22.8376C5.48891 22.8133 5.45808 22.789 5.40925 22.7509C5.35503 22.7171 5.3188 22.6972 5.28258 22.6773C5.19916 22.6146 5.11574 22.5518 5.0134 22.4739C4.91789 22.4019 4.8413 22.3452 4.76471 22.2885C4.75052 22.2738 4.73633 22.2592 4.70615 22.2311C4.66266 22.2005 4.63516 22.1833 4.60766 22.1661C4.58293 22.1428 4.5582 22.1195 4.52126 22.0846C4.50341 22.0653 4.49622 22.0634 4.48746 22.0673C4.48746 22.0673 4.4794 22.0538 4.47409 22.0472C4.46877 22.0407 4.45851 22.0423 4.45851 22.0423C4.3907 21.9819 4.32288 21.9216 4.24322 21.8495C4.23138 21.8379 4.21672 21.8373 4.21672 21.8373C3.86873 21.4882 3.52074 21.139 3.16438 20.7795C3.15602 20.7691 3.14637 20.7683 3.14637 20.7683C3.08839 20.6965 3.03041 20.6247 2.95719 20.5341C2.90636 20.4811 2.87076 20.4467 2.83516 20.4124C2.83516 20.4124 2.82978 20.4239 2.83023 20.4057C2.77872 20.3304 2.72677 20.2733 2.67482 20.2163C2.67482 20.2163 2.67052 20.2251 2.6712 20.2088C2.64446 20.1618 2.61704 20.1311 2.58961 20.1004C2.55801 20.0529 2.52641 20.0054 2.48122 19.9393C2.42957 19.8754 2.39152 19.8301 2.35347 19.7849C2.35347 19.7849 2.35134 19.79 2.35063 19.7747C2.30169 19.6993 2.25345 19.6392 2.20521 19.579C2.20521 19.579 2.19671 19.5769 2.1986 19.5646C2.15634 19.4906 2.11218 19.429 2.06802 19.3673C2.01254 19.2747 1.95706 19.1821 1.88901 19.0705C1.8622 19.034 1.84795 19.0165 1.8337 18.999C1.8337 18.999 1.83448 18.9976 1.83156 18.9841C1.75098 18.8475 1.67331 18.7246 1.59564 18.6016C1.58757 18.5803 1.5795 18.559 1.56145 18.517C1.51503 18.4356 1.47859 18.3748 1.44216 18.3141C1.43612 18.2951 1.43009 18.2761 1.41745 18.2428C1.41085 18.2284 1.3966 18.2204 1.3966 18.2204C1.39211 18.2061 1.38762 18.1918 1.37268 18.1586C1.34849 18.1205 1.33475 18.1013 1.321 18.0821C1.24575 17.9194 1.1705 17.7566 1.08655 17.5698C1.0538 17.5011 1.02975 17.4565 1.00571 17.4119C0.984611 17.3524 0.963513 17.293 0.93281 17.2095C0.8854 17.0979 0.847593 17.0103 0.809787 16.9228C0.809787 16.9228 0.810753 16.9086 0.806995 16.8906C0.789554 16.8438 0.775869 16.815 0.762182 16.7862C0.761783 16.7782 0.761384 16.7701 0.756114 16.7381C0.726436 16.657 0.701627 16.6 0.676818 16.543C0.638472 16.4196 0.600124 16.2962 0.556226 16.1487C0.540772 16.1057 0.53087 16.0868 0.520967 16.0679C0.489461 15.9436 0.457956 15.8192 0.418931 15.6684C0.396622 15.5985 0.381832 15.5551 0.367041 15.5117C0.350002 15.4256 0.332962 15.3394 0.312379 15.2307C0.301752 15.1927 0.294667 15.1771 0.287583 15.1615C0.284662 15.1295 0.281741 15.0975 0.275033 15.0408C0.262385 14.9969 0.253524 14.9776 0.244664 14.9584C0.243483 14.9399 0.242302 14.9215 0.237623 14.8801C0.225497 14.8377 0.216868 14.8182 0.20824 14.7988C0.204249 14.7556 0.200259 14.7124 0.192743 14.6449C0.181348 14.6011 0.173479 14.5816 0.165609 14.5622C0.154079 14.4665 0.142548 14.3707 0.128625 14.2443C0.118729 14.1839 0.111227 14.1543 0.107838 14.1146C0.104697 14.0851 0.097441 14.0655 0.0921869 14.03C0.0875276 13.9718 0.08087 13.9297 0.0774789 13.8731C0.0700475 13.8024 0.0593495 13.7463 0.0486504 13.6901C0.0449474 13.6081 0.0412444 13.5262 0.0361318 13.4135C0.0259706 13.3137 0.0172202 13.2445 0.00846987 13.1754C0.00701672 12.8836 0.00556477 12.5918 0.00504372 12.2658C0.00398226 12.1759 0.00199114 12.12 0 12.0642C0.00502317 11.9701 0.0100463 11.876 0.0197493 11.7518C0.0254302 11.6511 0.0264312 11.5805 0.0274334 11.5099C0.0363808 11.429 0.0453282 11.3481 0.059497 11.239C0.0649591 11.1675 0.0651984 11.1242 0.0723506 11.065C0.0826701 10.9913 0.0860769 10.9336 0.0961885 10.8674C0.101217 10.8386 0.0995398 10.8182 0.105892 10.7843C0.115773 10.7397 0.117627 10.7087 0.11948 10.6777C0.123899 10.6593 0.128317 10.6409 0.135951 10.6062C0.139165 10.5898 0.141899 10.5795 0.141899 10.5795L0.132498 10.5746C0.144632 10.5153 0.156766 10.4559 0.174423 10.3701C0.179372 10.3229 0.178799 10.3023 0.178225 10.2817C0.192982 10.2151 0.207739 10.1485 0.231257 10.0523C0.25073 9.9527 0.261444 9.8826 0.272158 9.8125C0.272158 9.8125 0.273888 9.8015 0.279632 9.7912C0.290679 9.7498 0.295982 9.7187 0.301286 9.6876C0.323021 9.6055 0.344754 9.5234 0.373194 9.4176C0.381993 9.3727 0.384086 9.3517 0.393505 9.3186C0.404773 9.2789 0.408715 9.2512 0.412657 9.2236C0.425077 9.1896 0.437498 9.1557 0.458362 9.0969C0.495368 8.9782 0.522656 8.8838 0.552737 8.7904C0.630841 8.5478 0.710174 8.3056 0.789016 8.0632C0.807428 8.0201 0.82584 7.9771 0.854799 7.9107C0.99235 7.5905 1.11935 7.2937 1.24635 6.9969C1.27138 6.9524 1.2964 6.9078 1.33334 6.8427C1.36461 6.7751 1.38395 6.7281 1.40329 6.6811C1.40329 6.6811 1.40221 6.6772 1.41338 6.6719C1.69325 6.2247 1.95701 5.77982 2.23279 5.34252C2.36501 5.13285 2.51998 4.93753 2.66465 4.73572C2.66465 4.73572 2.66632 4.73609 2.67769 4.72947C3.14612 4.16232 3.63003 3.62729 4.17859 3.15363C4.36193 2.99533 4.54516 2.8369 4.72844 2.67853C4.72844 2.67853 4.72603 2.67657 4.7404 2.67486C4.80242 2.6379 4.85049 2.60321 4.89765 2.56732C5.57143 2.05463 6.29013 1.61508 7.05088 1.2439C8.24074 0.663338 9.49797 0.312218 10.8055 0.121708C12.0103 -0.0538116 13.2127 -0.0361813 14.4112 0.153229C15.4567 0.318459 16.4683 0.611558 17.4398 1.03778C19.0564 1.74698 20.4717 2.73748 21.6615 4.0452C21.8254 4.22531 21.9894 4.40533 22.1533 4.58539C22.197 4.64588 22.2407 4.70637 22.2993 4.78636C22.4593 4.99424 22.6044 5.18262 22.7496 5.371C22.7496 5.371 22.7508 5.37005 22.7526 5.38337C22.791 5.44542 22.8275 5.49415 22.864 5.54289C22.8725 5.56144 22.8809 5.57999 22.9009 5.61669C22.963 5.70645 23.0135 5.77807 23.0639 5.84969C23.0639 5.84969 23.0661 5.8452 23.0661 5.85956C23.0982 5.92096 23.1303 5.968 23.1624 6.015C23.1858 6.0604 23.2092 6.1057 23.2458 6.1732C23.4446 6.5415 23.6302 6.8875 23.8158 7.2336C23.8391 7.292 23.8623 7.3505 23.8945 7.4323C23.9272 7.5003 23.951 7.5449 23.9748 7.5896C23.9914 7.6375 24.0079 7.6855 24.0348 7.7575C24.075 7.8495 24.1049 7.9174 24.1348 7.9853C24.1578 8.0566 24.1808 8.128 24.2119 8.2244C24.2438 8.307 24.2676 8.3646 24.2913 8.4221C24.3031 8.4664 24.3149 8.5107 24.3334 8.5818C24.3778 8.7176 24.4156 8.8267 24.4533 8.9357C24.4764 9.0326 24.4996 9.1295 24.529 9.2521C24.548 9.3089 24.5606 9.34 24.5732 9.3711C24.6078 9.5338 24.6424 9.6965 24.6829 9.8876C24.7033 9.9719 24.7178 10.0279 24.7324 10.0839C24.7499 10.2059 24.7674 10.3279 24.7883 10.4748C24.799 10.5193 24.8062 10.539 24.8134 10.5586C24.8168 10.6146 24.8201 10.6706 24.8262 10.7571C24.8499 10.9095 24.8708 11.0313 24.8917 11.1532C24.8914 11.1712 24.891 11.1891 24.8922 11.2369C24.9065 11.374 24.9192 11.4813 24.9318 11.5887C24.9326 11.6441 24.9334 11.6995 24.9344 11.7893C24.9415 12.1814 24.9483 12.5392 24.9551 12.8971C24.9457 13.0304 24.9363 13.1637 24.9218 13.3286C24.9112 13.4566 24.9056 13.5532 24.9001 13.6498C24.8958 13.6796 24.8914 13.7093 24.8812 13.7667C24.8613 13.918 24.8471 14.0418 24.833 14.1655C24.8246 14.2202 24.8162 14.2748 24.8026 14.3545C24.7971 14.4005 24.7968 14.4215 24.7965 14.4425C24.7875 14.4844 24.7785 14.5262 24.7623 14.5967C24.7278 14.7759 24.7004 14.9265 24.6731 15.0771C24.6655 15.1061 24.658 15.1352 24.6429 15.1912C24.5763 15.4476 24.5214 15.6781 24.4575 15.9062C24.033 17.422 23.3225 18.7938 22.3708 20.0439C22.2397 20.216 22.1112 20.39 21.9815 20.5632C21.9815 20.5632 21.9826 20.5664 21.969 20.5705C21.6804 20.8626 21.405 21.1504 21.1307 21.4392C21.0954 21.4764 21.0662 21.5192 21.0342 21.5595C21.0342 21.5595 21.0434 21.565 21.026 21.5653C20.9129 21.6577 20.8172 21.7499 20.7215 21.8421C20.7215 21.8421 20.7281 21.8469 20.7126 21.847C20.0078 22.4203 19.2941 22.9574 18.4806 23.3798C18.4473 23.2634 18.4207 23.1704 18.3941 23.0774C18.3823 23.0078 18.3706 22.9382 18.3549 22.8387C18.3242 22.7008 18.2973 22.5928 18.2705 22.4848C18.2687 22.4544 18.2669 22.4239 18.2617 22.3689C18.2494 22.325 18.2407 22.3057 18.232 22.2863C18.2296 22.2559 18.2272 22.2254 18.221 22.1708C18.2089 22.1271 18.2006 22.1077 18.1923 22.0882C18.192 22.0703 18.1917 22.0524 18.1885 22.006C18.1477 21.8166 18.1098 21.6557 18.0719 21.4948C18.0684 21.4613 18.065 21.4279 18.0569 21.3743C18.0513 21.3446 18.0462 21.3382 18.0371 21.3349C18.0364 21.3171 18.0357 21.2993 18.0327 21.2533C18.0188 21.1609 18.0147 21.0941 17.9939 21.033C17.9566 20.9231 17.9833 20.8482 18.0829 20.7854C18.1932 20.7159 18.2993 20.638 18.4004 20.5554C18.6426 20.3575 18.8808 20.1547 19.1207 19.954C19.1207 19.954 19.1374 19.948 19.15 19.9402C19.1722 19.927 19.1764 19.9187 19.175 19.9076C19.2011 19.8885 19.2273 19.8694 19.2714 19.8352C19.3488 19.758 19.4083 19.6958 19.4679 19.6336C19.4812 19.6321 19.4915 19.6257 19.514 19.6004C19.6976 19.4115 19.8751 19.2446 20.032 19.0602C20.2222 18.8365 20.395 18.5981 20.5754 18.3661C20.5754 18.3661 20.5726 18.3634 20.5853 18.3589C20.7974 18.0394 20.9968 17.7245 21.1963 17.4095C21.1963 17.4095 21.2042 17.405 21.2083 17.4009C21.2125 17.3969 21.2099 17.385 21.2099 17.385C21.2277 17.3563 21.2455 17.3275 21.2778 17.2749C21.3158 17.1994 21.3393 17.1476 21.3628 17.0958C21.3628 17.0958 21.3717 17.087 21.3821 17.0715C21.4357 16.9626 21.4789 16.8691 21.5287 16.7713C21.5434 16.7582 21.5449 16.7484 21.5398 16.7375C21.5615 16.6954 21.5832 16.6533 21.6156 16.5904C21.6301 16.5556 21.634 16.5416 21.6439 16.5254C21.657 16.515 21.6563 16.5075 21.6478 16.5008C21.6848 16.4187 21.7218 16.3366 21.7699 16.2304C21.8521 16.0012 21.9231 15.7961 21.9941 15.591C21.999 15.578 22.0039 15.565 22.0177 15.5308C22.0635 15.3778 22.1004 15.246 22.1372 15.1141C22.1436 15.0972 22.15 15.0802 22.1646 15.0388C22.1867 14.9419 22.2007 14.8695 22.2147 14.7972C22.2208 14.7798 22.2269 14.7625 22.2403 14.7199C22.2622 14.6099 22.2768 14.5251 22.2914 14.4403C22.2979 14.423 22.3043 14.4057 22.3179 14.3648C22.3263 14.3083 22.3275 14.2754 22.3288 14.2426C22.3364 14.2129 22.3439 14.1831 22.3581 14.1264C22.369 14.0416 22.3734 13.9837 22.3777 13.9259C22.3822 13.9081 22.3866 13.8903 22.3977 13.8473C22.4076 13.7642 22.411 13.7064 22.4144 13.6485C22.4209 13.6062 22.4274 13.5639 22.44 13.4933C22.4496 13.3942 22.4531 13.3233 22.4566 13.2525C22.4616 13.2224 22.4666 13.1923 22.4774 13.1338C22.4873 12.8625 22.4945 12.6197 22.4938 12.377C22.4935 12.2736 22.4767 12.1704 22.4673 12.067C22.4671 12.0113 22.4668 11.9555 22.466 11.8674C22.453 11.7406 22.4406 11.6462 22.4282 11.5519C22.4269 11.5088 22.4256 11.4657 22.4224 11.3942C22.4107 11.3219 22.4009 11.2779 22.3911 11.234C22.3882 11.1783 22.3853 11.1225 22.3803 11.0395C22.3687 10.9807 22.3591 10.9492 22.3495 10.9178C22.348 10.8855 22.3465 10.8532 22.3425 10.7952C22.3309 10.7413 22.3217 10.7133 22.3126 10.6853C22.3124 10.6722 22.3123 10.6591 22.307 10.6216C22.2829 10.5179 22.2638 10.4386 22.2447 10.3593C22.2206 10.2332 22.1964 10.1072 22.1686 9.9643C22.1651 9.9475 22.1539 9.9378 22.1539 9.9378C22.1518 9.9172 22.1498 9.8966 22.1437 9.8512C22.1295 9.8075 22.1194 9.7886 22.1093 9.7697C22.1059 9.7481 22.1025 9.7266 22.0944 9.6875C22.089 9.6612 22.0841 9.6567 22.0753 9.6564C22.0551 9.5825 22.035 9.5086 22.0077 9.4075C21.9606 9.2714 21.9205 9.1625 21.8804 9.0537C21.8628 8.9932 21.8452 8.9327 21.8176 8.8496C21.788 8.781 21.7683 8.735 21.7486 8.6891C21.7486 8.6891 21.7466 8.672 21.7384 8.6521C21.716 8.6075 21.7018 8.5828 21.6876 8.5581C21.6876 8.5581 21.6912 8.5473 21.6869 8.5284C21.6099 8.3483 21.544 8.1838 21.4632 8.0269C21.3587 7.824 21.2424 7.6273 21.1312 7.4279C21.1075 7.3822 21.0838 7.3365 21.0486 7.268C20.8303 6.9479 20.6235 6.6507 20.4166 6.3535C20.4172 6.3415 20.4133 6.3313 20.3926 6.3057C19.996 5.79578 19.568 5.34378 19.0965 4.93401C18.9491 4.80594 18.789 4.69248 18.6348 4.57233C18.6348 4.57233 18.6308 4.57585 18.6276 4.56264C18.5903 4.51835 18.5588 4.48368 18.5217 4.45671C17.9279 4.02516 17.3045 3.64156 16.6303 3.35027C16.4949 3.29177 16.3214 3.31761 16.1652 3.31436C16.1362 3.31376 16.1013 3.35608 16.0775 3.38543C15.8741 3.63651 15.6712 3.88801 15.4709 4.14158C15.0213 4.71081 14.5726 5.2807 14.1255 5.8519C14.0597 5.93595 13.9905 5.97267 13.8754 5.96897C13.5992 5.96008 13.3222 5.97451 13.0286 5.97462C12.9302 5.97317 12.8488 5.97663 12.7529 5.97565C12.7089 5.97412 12.6792 5.97704 12.6317 5.97497C12.4007 5.97319 12.1876 5.97638 11.9565 5.97514C11.6486 5.97113 11.3587 5.96904 11.0688 5.97336C10.9684 5.97485 10.8913 5.9462 10.8298 5.86452C10.7466 5.7542 10.6574 5.64845 10.5708 5.54071C10.3978 5.32543 10.2248 5.11014 10.0517 4.88855C10.0474 4.8735 10.0405 4.86962 10.0308 4.87061Z" fill="#007AFF"/>
<path d="M16.8126 21.2149C16.8421 21.3766 16.8716 21.5383 16.9048 21.7267C16.9178 21.7847 16.927 21.816 16.9362 21.8472C16.9506 21.9307 16.965 22.0141 16.9832 22.1219C16.9955 22.1658 17.0038 22.1853 17.0121 22.2048C17.0191 22.2532 17.026 22.3015 17.0365 22.3657C17.0401 22.3816 17.05 22.3907 17.05 22.3907C17.0533 22.4244 17.0567 22.4581 17.0638 22.517C17.0754 22.5618 17.0833 22.5815 17.0912 22.6011C17.0941 22.6318 17.097 22.6625 17.1037 22.7167C17.1154 22.7599 17.1233 22.7795 17.1311 22.7991C17.1375 22.8468 17.1439 22.8946 17.1538 22.9597C17.1572 22.977 17.1685 22.9872 17.1685 22.9872C17.1704 23.0088 17.1722 23.0304 17.1775 23.0785C17.1912 23.135 17.2015 23.1649 17.2118 23.1948C17.2179 23.2428 17.2239 23.2907 17.2332 23.3558C17.2364 23.3729 17.2476 23.3829 17.2476 23.3829C17.2489 23.4032 17.2502 23.4236 17.2548 23.4706C17.269 23.5286 17.2797 23.5599 17.2905 23.5913C17.2972 23.6397 17.3039 23.6881 17.3142 23.7521C17.3178 23.7677 17.3274 23.7768 17.3274 23.7768C17.3456 23.8768 17.3638 23.9769 17.3866 24.1053C17.4099 24.2038 17.4286 24.274 17.4473 24.3442C17.45 24.3747 17.4527 24.4052 17.4588 24.4596C17.47 24.5032 17.478 24.5229 17.486 24.5426C17.5087 24.6655 17.5315 24.7883 17.5585 24.941C17.5848 25.0674 17.6069 25.1641 17.6289 25.2607C17.6561 25.4249 17.6832 25.5891 17.7102 25.7735C17.7099 25.7937 17.7141 25.8017 17.7141 25.8017C17.7073 25.8093 17.7006 25.8168 17.6759 25.8425C17.6251 25.8962 17.5923 25.9319 17.5595 25.9676C17.5595 25.9676 17.562 25.9696 17.5487 25.9731C17.4372 26.0792 17.339 26.1819 17.2407 26.2846C17.2274 26.2854 17.2168 26.2913 17.1939 26.315C17.1467 26.3659 17.1146 26.4039 17.0826 26.442C17.0826 26.442 17.0859 26.445 17.0729 26.4476C17.0149 26.5004 16.97 26.5507 16.925 26.601C16.925 26.601 16.9281 26.6033 16.9146 26.6066C16.6973 26.8183 16.4936 27.0268 16.2898 27.2353C16.2764 27.2366 16.266 27.2429 16.244 27.2677C16.1971 27.3185 16.1648 27.3558 16.1325 27.3931C16.1325 27.3931 16.1357 27.3956 16.1221 27.3987C15.9922 27.5168 15.8744 27.6304 15.7598 27.747C15.5264 27.9846 15.2948 28.2238 15.0624 28.4624C15.0624 28.4624 15.0662 28.4646 15.0521 28.4667C14.8201 28.691 14.6021 28.9131 14.3841 29.1352C14.3714 29.1362 14.3617 29.142 14.3397 29.1658C14.2392 29.2692 14.1538 29.3595 14.0685 29.4498C14.0685 29.4498 14.0737 29.4533 14.0595 29.4544C14.0002 29.5063 13.955 29.5571 13.9098 29.608C13.9098 29.608 13.9156 29.612 13.901 29.613C13.8399 29.6652 13.7934 29.7164 13.7469 29.7677C13.4747 30.0329 13.2026 30.2981 12.9136 30.5804C12.875 30.6242 12.8532 30.6509 12.8314 30.6776C12.8205 30.6783 12.8121 30.6833 12.7917 30.7053C12.6921 30.8111 12.6071 30.9039 12.522 30.9968C12.506 30.9998 12.49 31.0028 12.4553 30.9951C12.3771 30.9236 12.3176 30.8627 12.2742 30.802C12.4108 30.8113 12.4525 30.7511 12.4533 30.6356C12.4546 30.4342 12.4262 30.2345 12.4474 30.0309C12.4722 29.7919 12.4625 29.5495 12.4695 29.3087C12.4728 29.1939 12.4835 29.0793 12.4847 28.9646C12.4861 28.8429 12.4813 28.721 12.4772 28.5993C12.4714 28.4256 12.4564 28.2519 12.459 28.0783C12.462 27.8819 12.4847 27.6858 12.49 27.4894C12.4945 27.3248 12.4883 27.1598 12.4833 26.995C12.4751 26.7283 12.4578 26.4618 12.4567 26.1951C12.456 26.0385 12.4873 25.8819 12.4898 25.725C12.4952 25.3754 12.4871 25.0255 12.4931 24.6759C12.4966 24.4729 12.5182 24.2702 12.5286 24.0673C12.532 24.0017 12.5287 23.9354 12.5234 23.8699C12.515 23.7657 12.4929 23.6618 12.4928 23.5578C12.491 21.1757 12.4914 18.7937 12.4913 16.4116C12.4913 16.3457 12.5066 16.2739 12.4862 16.2147C12.3834 15.9178 12.5084 15.618 12.4655 15.3177C12.4399 15.1389 12.5102 14.9491 12.4552 14.7635C12.4446 14.7276 12.4546 14.6849 12.4581 14.6456C12.4684 14.5284 12.4907 14.4112 12.4899 14.2941C12.479 12.7551 12.5175 11.216 12.4548 9.67713C12.4172 8.75583 12.4968 7.83223 12.4135 6.91093C12.3975 6.73473 12.3917 6.71813 12.2175 6.67193C12.1731 6.66013 12.1294 6.64443 12.0843 6.63763C12.0021 6.62513 11.9746 6.57443 11.9945 6.49423C12.5937 6.48933 13.1748 6.48903 13.7597 6.49453C13.7758 6.49983 13.788 6.49953 13.8068 6.50103C13.8133 6.50293 13.8269 6.50313 13.8269 6.50313C13.837 6.56513 13.8471 6.62713 13.8608 6.71243C13.8715 6.75513 13.8784 6.77453 13.8854 6.79393C13.8887 6.82493 13.892 6.85583 13.8988 6.91033C13.9099 6.95313 13.9174 6.97253 13.925 6.99193C13.9539 7.14113 13.9828 7.29023 14.0156 7.46383C14.0271 7.50793 14.0348 7.52743 14.0425 7.54693C14.0458 7.57783 14.0491 7.60863 14.0562 7.66303C14.0677 7.70583 14.0755 7.72523 14.0833 7.74463C14.1002 7.84113 14.1171 7.93753 14.1379 8.05823C14.1492 8.10173 14.1565 8.12103 14.1639 8.14043C14.1652 8.15913 14.1666 8.17783 14.1715 8.21903C14.1829 8.26113 14.1907 8.28073 14.1985 8.30033C14.1992 8.31843 14.1998 8.33653 14.2033 8.37963C14.2164 8.43603 14.2267 8.46743 14.2369 8.49883C14.2814 8.73953 14.326 8.98033 14.3744 9.24603C14.3856 9.29043 14.3929 9.30983 14.4002 9.32923C14.4014 9.34783 14.4026 9.36643 14.4071 9.40763C14.4192 9.44973 14.4279 9.46923 14.4366 9.48873C14.4532 9.58493 14.4698 9.68113 14.4903 9.80153C14.5017 9.84533 14.5093 9.86493 14.517 9.88453C14.5195 9.91523 14.522 9.94583 14.528 10.0003C14.5394 10.0437 14.5473 10.0634 14.5552 10.083C14.556 10.1011 14.5568 10.1193 14.5608 10.1623C14.5751 10.2182 14.5861 10.2492 14.5971 10.2803C14.6039 10.3293 14.6106 10.3783 14.6222 10.4412C14.627 10.4552 14.6338 10.4636 14.6338 10.4636C14.638 10.4982 14.6422 10.5328 14.6506 10.5926C14.6623 10.6373 14.6698 10.6568 14.6772 10.6762C14.6804 10.7072 14.6836 10.7381 14.6906 10.7926C14.7021 10.8354 14.7098 10.8547 14.7176 10.8741C14.7191 10.8927 14.7206 10.9114 14.7255 10.9525C14.7367 10.9946 14.7445 11.0144 14.7522 11.0341C14.757 11.0774 14.7618 11.1206 14.7707 11.188C14.7825 11.2314 14.7901 11.2506 14.7977 11.2699C14.8162 11.3678 14.8348 11.4657 14.8589 11.5921C14.8812 11.6888 14.8978 11.7569 14.9145 11.825C14.9344 11.9401 14.9542 12.0552 14.9777 12.1849C14.9814 12.1995 14.9903 12.2085 14.9903 12.2085C14.994 12.2425 14.9976 12.2766 15.0058 12.3399C15.0307 12.4521 15.0509 12.5351 15.0711 12.618C15.0875 12.7143 15.1039 12.8105 15.1245 12.931C15.1364 12.9747 15.1441 12.9942 15.1518 13.0137C15.1548 13.0447 15.1577 13.0756 15.1656 13.134C15.191 13.2442 15.2116 13.3268 15.2322 13.4094C15.2352 13.4404 15.2383 13.4714 15.2451 13.5259C15.2561 13.5689 15.2634 13.5885 15.2706 13.608C15.274 13.6388 15.2774 13.6697 15.2846 13.724C15.2961 13.7669 15.3038 13.7863 15.3114 13.8057C15.3147 13.8363 15.3179 13.8669 15.3257 13.9243C15.3489 14.022 15.3674 14.0928 15.3859 14.1637C15.3884 14.194 15.3908 14.2243 15.3967 14.2805C15.4104 14.3374 15.4207 14.3685 15.4309 14.3996C15.4343 14.4307 15.4377 14.4617 15.445 14.5162C15.4561 14.559 15.4632 14.5785 15.4703 14.5979C15.4821 14.668 15.4939 14.7381 15.5091 14.8351C15.523 14.8933 15.5336 14.9247 15.5442 14.956C15.5492 14.9993 15.5541 15.0425 15.5634 15.1099C15.5748 15.1533 15.582 15.1727 15.5892 15.1921C15.5937 15.2264 15.5982 15.2607 15.6063 15.3137C15.61 15.3408 15.6142 15.3456 15.6227 15.3466C15.6353 15.4181 15.6478 15.4895 15.6638 15.5892C15.68 15.6607 15.6927 15.704 15.7054 15.7474C15.7217 15.8437 15.738 15.94 15.7584 16.0605C15.7698 16.1044 15.7772 16.124 15.7846 16.1436C15.7876 16.1743 15.7906 16.2049 15.798 16.2631C15.8229 16.3737 15.8434 16.4567 15.8638 16.5397C15.8703 16.5875 15.8767 16.6353 15.8864 16.7006C15.8897 16.7181 15.9008 16.729 15.9008 16.729C15.9078 16.7788 15.9148 16.8287 15.9252 16.8975C15.9286 16.9165 15.9402 16.9283 15.9402 16.9283C15.9503 16.9881 15.9605 17.0479 15.9752 17.1361C15.9946 17.2202 16.0095 17.2758 16.0244 17.3315C16.0275 17.3624 16.0307 17.3934 16.0381 17.4478C16.0498 17.4906 16.0573 17.5099 16.0648 17.5293C16.0899 17.665 16.115 17.8008 16.1434 17.964C16.1571 18.0228 16.1677 18.0542 16.1782 18.0855C16.1828 18.1287 16.1873 18.1719 16.1961 18.2393C16.2077 18.2829 16.2152 18.3023 16.2228 18.3217C16.248 18.4573 16.2732 18.5929 16.3017 18.7561C16.3158 18.8152 16.3267 18.8466 16.3375 18.8781C16.358 18.9926 16.3786 19.1072 16.403 19.2366C16.4069 19.2514 16.4163 19.2604 16.4163 19.2604C16.4469 19.4266 16.4776 19.5928 16.5121 19.7838C16.5236 19.828 16.5312 19.8475 16.5388 19.8669C16.5425 19.8979 16.5463 19.9288 16.5538 19.9831C16.5647 20.0259 16.5719 20.0454 16.5791 20.0648C16.5822 20.0956 16.5852 20.1265 16.5927 20.1843C16.6162 20.2817 16.6354 20.352 16.6546 20.4224C16.6576 20.4529 16.6607 20.4834 16.667 20.5377C16.6785 20.5812 16.6866 20.6008 16.6948 20.6204C16.7209 20.769 16.7469 20.9176 16.7766 21.0937C16.791 21.1524 16.8018 21.1836 16.8126 21.2149Z" fill="#006CE2"/>
<path d="M11.9771 6.49892C11.9753 6.57452 12.0028 6.62522 12.085 6.63772C12.1301 6.64452 12.1738 6.66022 12.2182 6.67192C12.3923 6.71812 12.3982 6.73482 12.4141 6.91102C12.4975 7.83232 12.4179 8.75592 12.4555 9.67722C12.5182 11.2161 12.4797 12.7552 12.4906 14.2942C12.4914 14.4112 12.4691 14.5284 12.4588 14.6457C12.4553 14.685 12.4453 14.7276 12.4559 14.7635C12.5108 14.9492 12.4406 15.1389 12.4661 15.3178C12.5091 15.6181 12.3841 15.9178 12.4868 16.2148C12.5073 16.274 12.4919 16.3458 12.492 16.4117C12.4921 18.7938 12.4917 21.1758 12.4935 23.5579C12.4936 23.6619 12.5156 23.7658 12.5241 23.87C12.5294 23.9355 12.5327 24.0018 12.5293 24.0674C12.5189 24.2703 12.4973 24.473 12.4938 24.676C12.4878 25.0256 12.4958 25.3755 12.4905 25.7251C12.488 25.8819 12.4567 26.0385 12.4574 26.1952C12.4585 26.4618 12.4758 26.7284 12.484 26.9951C12.489 27.1598 12.4952 27.3248 12.4907 27.4894C12.4854 27.6859 12.4626 27.882 12.4597 28.0784C12.4571 28.252 12.4721 28.4257 12.4779 28.5994C12.482 28.7211 12.4868 28.843 12.4854 28.9647C12.4842 29.0794 12.4735 29.194 12.4702 29.3087C12.4632 29.5496 12.4729 29.792 12.4481 30.0309C12.4269 30.2346 12.4553 30.4343 12.454 30.6357C12.4532 30.7512 12.4115 30.8113 12.266 30.7942C12.2211 30.773 12.2013 30.7599 12.1814 30.7468C12.1806 30.7359 12.1756 30.7275 12.1536 30.7075C12.101 30.6598 12.0612 30.6263 12.0215 30.5929C11.9114 30.4807 11.8013 30.3685 11.6754 30.239C11.6345 30.2013 11.6094 30.181 11.5843 30.1606C11.5144 30.0867 11.4445 30.0127 11.3585 29.9212C11.3042 29.8707 11.2659 29.8376 11.2277 29.8045C11.2263 29.7918 11.2203 29.7819 11.1963 29.7598C11.0922 29.6593 11.0012 29.5739 10.9103 29.4886C10.8921 29.4662 10.8739 29.4439 10.8415 29.4058C10.8021 29.37 10.777 29.35 10.7519 29.3299C10.7506 29.3171 10.7445 29.3071 10.721 29.2857C10.6833 29.2512 10.6581 29.2312 10.633 29.2112C10.5889 29.1631 10.5448 29.1151 10.4853 29.05C10.4316 29.0003 10.3934 28.9678 10.3552 28.9352C10.2972 28.874 10.2392 28.8128 10.1647 28.7344C10.0852 28.6579 10.0221 28.5988 9.95905 28.5396C9.62505 28.2008 9.29106 27.862 8.94077 27.5051C8.84699 27.4146 8.76952 27.3422 8.69205 27.2698C8.6597 27.2351 8.62735 27.2004 8.5792 27.15C8.53246 27.1105 8.50151 27.0865 8.47057 27.0625C8.47057 27.0625 8.4669 27.0633 8.46384 27.0505C8.43142 27.0115 8.40206 26.9854 8.37271 26.9592C8.37058 26.9453 8.36365 26.9345 8.33818 26.9118C8.2878 26.8646 8.25115 26.8323 8.2145 26.8C8.15696 26.7375 8.09942 26.675 8.02551 26.5959C7.97204 26.547 7.93495 26.5148 7.89786 26.4825C7.89599 26.4688 7.88924 26.4581 7.86392 26.4357C7.81331 26.3886 7.7764 26.3563 7.73948 26.324C7.73757 26.3103 7.73081 26.2996 7.70552 26.2772C7.65477 26.2305 7.61771 26.1985 7.58065 26.1666C7.52229 26.1043 7.46393 26.0421 7.38798 25.9614C7.25727 25.8568 7.22852 25.7449 7.26396 25.6101C7.27367 25.5732 7.26997 25.5328 7.27242 25.4939C7.28276 25.4519 7.29311 25.4099 7.30982 25.3417C7.31994 25.2825 7.32369 25.2495 7.32745 25.2165C7.33248 25.1991 7.33752 25.1817 7.34965 25.1387C7.38312 24.9626 7.40949 24.8123 7.43585 24.6619C7.44427 24.6325 7.45269 24.6031 7.46714 24.5501C7.47444 24.5056 7.47572 24.4846 7.47699 24.4636C7.48519 24.4342 7.49338 24.4049 7.50886 24.3487C7.54114 24.1843 7.56613 24.0468 7.59112 23.9093C7.60001 23.8797 7.60889 23.8502 7.6233 23.7968C7.62865 23.7524 7.62846 23.7317 7.62828 23.7111C7.63796 23.6816 7.64763 23.6521 7.66413 23.5952C7.68764 23.4701 7.70432 23.3724 7.72101 23.2747C7.72639 23.2574 7.73178 23.2401 7.74379 23.1993C7.75341 23.1429 7.7564 23.1101 7.7594 23.0772C7.76633 23.0479 7.77326 23.0185 7.78645 22.966C7.79499 22.9215 7.79726 22.9003 7.79953 22.8791C7.80488 22.8615 7.81023 22.844 7.82244 22.8005C7.86035 22.6113 7.89142 22.4482 7.92248 22.2851C7.92739 22.2676 7.93229 22.2502 7.94308 22.2111C7.95088 22.1684 7.95278 22.1473 7.95468 22.1263C7.96242 22.097 7.97016 22.0678 7.98517 22.0115C8.02029 21.8337 8.04812 21.683 8.07596 21.5322C8.08134 21.5147 8.08672 21.4971 8.09851 21.4558C8.10881 21.3994 8.1127 21.3668 8.11659 21.3341C8.12188 21.3166 8.12717 21.299 8.13921 21.2551C8.17655 21.0527 8.20713 20.8766 8.2377 20.7005C8.24269 20.6829 8.24768 20.6654 8.26013 20.6223C8.30979 20.3804 8.352 20.1641 8.39421 19.9477C8.3996 19.9303 8.40499 19.9128 8.41758 19.8693C8.47932 19.5611 8.53386 19.279 8.58841 18.9969C8.59609 18.9676 8.60378 18.9384 8.61883 18.882C8.63974 18.7978 8.65565 18.7414 8.66645 18.6839C8.73124 18.3394 8.79485 17.9947 8.85885 17.65C8.86757 17.6205 8.87629 17.5909 8.89214 17.5336C8.93401 17.3161 8.96875 17.1265 9.00349 16.9368C9.00349 16.9368 9.00608 16.9354 9.01008 16.9318C9.01407 16.9283 9.01716 16.9184 9.01716 16.9184L9.00867 16.9123C9.0205 16.8663 9.03234 16.8202 9.04997 16.748C9.05717 16.701 9.05858 16.6802 9.05998 16.6595C9.06835 16.6301 9.07671 16.6007 9.09226 16.5439C9.1243 16.3794 9.14916 16.2424 9.17403 16.1053C9.18466 16.0635 9.19529 16.0217 9.21229 15.9554C9.22106 15.9097 9.22346 15.8885 9.22585 15.8672C9.2327 15.838 9.23956 15.8088 9.25412 15.7527C9.30235 15.5089 9.34287 15.292 9.3834 15.0751C9.39042 15.0458 9.39745 15.0165 9.41187 14.96C9.44723 14.7822 9.47519 14.6315 9.50315 14.4808C9.50984 14.4515 9.51653 14.4222 9.5295 14.3696C9.53814 14.3252 9.54049 14.3039 9.54284 14.2827C9.54794 14.2652 9.55304 14.2477 9.56535 14.2043C9.60027 14.0284 9.62798 13.8782 9.65568 13.7281C9.66355 13.6987 9.67142 13.6692 9.68532 13.6163C9.69275 13.5719 9.69414 13.5509 9.69553 13.5299C9.70383 13.5007 9.71211 13.4714 9.72773 13.4148C9.76284 13.237 9.79062 13.0864 9.81841 12.9359C9.82516 12.9064 9.83192 12.8769 9.84594 12.82C9.89131 12.5895 9.92941 12.3864 9.96752 12.1833C9.9763 12.1539 9.98508 12.1244 9.99931 12.0659C10.0493 11.8084 10.0938 11.5799 10.1383 11.3514C10.1431 11.3338 10.1479 11.3162 10.1585 11.2766C10.1647 11.2341 10.1654 11.2134 10.166 11.1927C10.175 11.1635 10.184 11.1342 10.1998 11.0775C10.2243 10.9522 10.2421 10.8545 10.2598 10.7567C10.2647 10.7394 10.2695 10.7221 10.2801 10.683C10.2861 10.6403 10.2865 10.6194 10.2868 10.5985C10.2953 10.5691 10.3038 10.5396 10.3187 10.4847C10.3292 10.4265 10.3333 10.3937 10.3373 10.3609C10.3426 10.3436 10.3478 10.3262 10.3604 10.2831C10.428 9.97082 10.4895 9.68452 10.548 9.39762C10.5712 9.28362 10.5877 9.16832 10.6073 9.05362C10.615 9.02422 10.6227 8.99472 10.6371 8.94012C10.6473 8.88202 10.6508 8.84902 10.6543 8.81602C10.6594 8.79852 10.6646 8.78112 10.6771 8.73812C10.7138 8.54892 10.7432 8.38542 10.7725 8.22182C10.7774 8.20422 10.7822 8.18652 10.7943 8.14322C10.842 7.90142 10.8824 7.68522 10.9228 7.46902C10.9309 7.43952 10.9389 7.41002 10.9547 7.35352C11.0083 7.13692 11.0542 6.94722 11.1122 6.75012C11.2331 6.64062 11.358 6.58622 11.5109 6.59682C11.6086 6.60362 11.7072 6.59672 11.8053 6.59812C11.8734 6.59902 11.8978 6.56202 11.9108 6.49542C11.9415 6.49332 11.9593 6.49612 11.9771 6.49892Z" fill="#007AFF"/>
<path d="M40.7443 8.36364V20H38.6193L33.5568 12.6761H33.4716V20H31.0114V8.36364H33.1705L38.1932 15.6818H38.2955V8.36364H40.7443ZM46.7088 20.1705C45.8111 20.1705 45.0384 19.9886 44.3906 19.625C43.7467 19.2576 43.2505 18.7386 42.902 18.0682C42.5535 17.3939 42.3793 16.5966 42.3793 15.6761C42.3793 14.7784 42.5535 13.9905 42.902 13.3125C43.2505 12.6345 43.741 12.1061 44.3736 11.7273C45.0099 11.3485 45.7562 11.1591 46.6122 11.1591C47.188 11.1591 47.724 11.2519 48.2202 11.4375C48.7202 11.6193 49.1558 11.8939 49.527 12.2614C49.902 12.6288 50.1937 13.0909 50.402 13.6477C50.6103 14.2008 50.7145 14.8485 50.7145 15.5909V16.2557H43.3452V14.7557H48.4361C48.4361 14.4072 48.3603 14.0985 48.2088 13.8295C48.0573 13.5606 47.8471 13.3504 47.5781 13.1989C47.313 13.0436 47.0043 12.9659 46.652 12.9659C46.2846 12.9659 45.9588 13.0511 45.6747 13.2216C45.3944 13.3883 45.1747 13.6136 45.0156 13.8977C44.8565 14.178 44.7751 14.4905 44.7713 14.8352V16.2614C44.7713 16.6932 44.8509 17.0663 45.0099 17.3807C45.1728 17.6951 45.402 17.9375 45.6974 18.108C45.9929 18.2784 46.3433 18.3636 46.7486 18.3636C47.0175 18.3636 47.2637 18.3258 47.4872 18.25C47.7107 18.1742 47.902 18.0606 48.0611 17.9091C48.2202 17.7576 48.3414 17.572 48.4247 17.3523L50.6634 17.5C50.5497 18.0379 50.3168 18.5076 49.9645 18.9091C49.616 19.3068 49.1652 19.6174 48.6122 19.8409C48.063 20.0606 47.4285 20.1705 46.7088 20.1705ZM54.1605 11.2727L55.7628 14.3239L57.4048 11.2727H59.8878L57.3594 15.6364L59.956 20H57.4844L55.7628 16.983L54.0696 20H51.5696L54.1605 15.6364L51.6605 11.2727H54.1605ZM69.0866 12.125C69.0071 11.8485 68.8954 11.6042 68.7514 11.392C68.6075 11.1761 68.4313 10.9943 68.223 10.8466C68.0185 10.6951 67.7836 10.5795 67.5185 10.5C67.2571 10.4205 66.9673 10.3807 66.6491 10.3807C66.0545 10.3807 65.5317 10.5284 65.081 10.8239C64.634 11.1193 64.2855 11.5492 64.0355 12.1136C63.7855 12.6742 63.6605 13.3598 63.6605 14.1705C63.6605 14.9811 63.7836 15.6705 64.0298 16.2386C64.276 16.8068 64.6245 17.2405 65.0753 17.5398C65.526 17.8352 66.0582 17.983 66.6719 17.983C67.2287 17.983 67.7041 17.8845 68.098 17.6875C68.4957 17.4867 68.7988 17.2045 69.0071 16.8409C69.2192 16.4773 69.3253 16.0473 69.3253 15.5511L69.8253 15.625H66.8253V13.7727H71.6946V15.2386C71.6946 16.2614 71.4787 17.1402 71.0469 17.875C70.6151 18.6061 70.0204 19.1705 69.2628 19.5682C68.5052 19.9621 67.6378 20.1591 66.6605 20.1591C65.5696 20.1591 64.6113 19.9186 63.7855 19.4375C62.9598 18.9527 62.3158 18.2652 61.8537 17.375C61.3954 16.4811 61.1662 15.4205 61.1662 14.1932C61.1662 13.25 61.3026 12.4091 61.5753 11.6705C61.8518 10.928 62.2382 10.2992 62.7344 9.78409C63.2306 9.26894 63.8082 8.87689 64.4673 8.60795C65.1264 8.33901 65.8404 8.20455 66.6094 8.20455C67.2685 8.20455 67.8821 8.30114 68.4503 8.49432C69.0185 8.68371 69.5223 8.95265 69.9616 9.30114C70.4048 9.64962 70.7666 10.0644 71.0469 10.5455C71.3272 11.0227 71.5071 11.5492 71.5866 12.125H69.0866ZM77.4744 20.1705C76.5767 20.1705 75.804 19.9886 75.1562 19.625C74.5123 19.2576 74.0161 18.7386 73.6676 18.0682C73.3191 17.3939 73.1449 16.5966 73.1449 15.6761C73.1449 14.7784 73.3191 13.9905 73.6676 13.3125C74.0161 12.6345 74.5066 12.1061 75.1392 11.7273C75.7756 11.3485 76.5218 11.1591 77.3778 11.1591C77.9536 11.1591 78.4896 11.2519 78.9858 11.4375C79.4858 11.6193 79.9214 11.8939 80.2926 12.2614C80.6676 12.6288 80.9593 13.0909 81.1676 13.6477C81.3759 14.2008 81.4801 14.8485 81.4801 15.5909V16.2557H74.1108V14.7557H79.2017C79.2017 14.4072 79.1259 14.0985 78.9744 13.8295C78.8229 13.5606 78.6127 13.3504 78.3438 13.1989C78.0786 13.0436 77.7699 12.9659 77.4176 12.9659C77.0502 12.9659 76.7244 13.0511 76.4403 13.2216C76.16 13.3883 75.9403 13.6136 75.7812 13.8977C75.6222 14.178 75.5407 14.4905 75.5369 14.8352V16.2614C75.5369 16.6932 75.6165 17.0663 75.7756 17.3807C75.9384 17.6951 76.1676 17.9375 76.4631 18.108C76.7585 18.2784 77.1089 18.3636 77.5142 18.3636C77.7831 18.3636 78.0294 18.3258 78.2528 18.25C78.4763 18.1742 78.6676 18.0606 78.8267 17.9091C78.9858 17.7576 79.107 17.572 79.1903 17.3523L81.429 17.5C81.3153 18.0379 81.0824 18.5076 80.7301 18.9091C80.3816 19.3068 79.9309 19.6174 79.3778 19.8409C78.8286 20.0606 78.1941 20.1705 77.4744 20.1705ZM85.4801 14.9545V20H83.0597V11.2727H85.3665V12.8125H85.4688C85.6619 12.3049 85.9858 11.9034 86.4403 11.608C86.8949 11.3087 87.446 11.1591 88.0938 11.1591C88.6998 11.1591 89.2282 11.2917 89.679 11.5568C90.1297 11.822 90.4801 12.2008 90.7301 12.6932C90.9801 13.1818 91.1051 13.7652 91.1051 14.4432V20H88.6847V14.875C88.6884 14.3409 88.5521 13.9242 88.2756 13.625C87.9991 13.322 87.6184 13.1705 87.1335 13.1705C86.8078 13.1705 86.5199 13.2405 86.2699 13.3807C86.0237 13.5208 85.8305 13.7254 85.6903 13.9943C85.554 14.2595 85.4839 14.5795 85.4801 14.9545ZM101.42 8.36364H103.852V16.4773C103.852 17.2273 103.684 17.8788 103.347 18.4318C103.013 18.9848 102.549 19.411 101.955 19.7102C101.36 20.0095 100.669 20.1591 99.8807 20.1591C99.1799 20.1591 98.5436 20.036 97.9716 19.7898C97.4034 19.5398 96.9527 19.161 96.6193 18.6534C96.286 18.142 96.1212 17.5 96.125 16.7273H98.5739C98.5814 17.0341 98.6439 17.2973 98.7614 17.517C98.8826 17.733 99.0473 17.8996 99.2557 18.017C99.4678 18.1307 99.7178 18.1875 100.006 18.1875C100.309 18.1875 100.564 18.1231 100.773 17.9943C100.985 17.8617 101.146 17.6686 101.256 17.4148C101.366 17.161 101.42 16.8485 101.42 16.4773V8.36364ZM109.648 20.1818C108.86 20.1818 108.169 19.9943 107.574 19.6193C106.983 19.2443 106.521 18.7197 106.188 18.0455C105.858 17.3712 105.693 16.5833 105.693 15.6818C105.693 14.7727 105.858 13.9792 106.188 13.3011C106.521 12.6231 106.983 12.0966 107.574 11.7216C108.169 11.3466 108.86 11.1591 109.648 11.1591C110.436 11.1591 111.125 11.3466 111.716 11.7216C112.311 12.0966 112.773 12.6231 113.102 13.3011C113.436 13.9792 113.602 14.7727 113.602 15.6818C113.602 16.5833 113.436 17.3712 113.102 18.0455C112.773 18.7197 112.311 19.2443 111.716 19.6193C111.125 19.9943 110.436 20.1818 109.648 20.1818ZM109.648 18.9773C110.246 18.9773 110.739 18.8239 111.125 18.517C111.511 18.2102 111.797 17.8068 111.983 17.3068C112.169 16.8068 112.261 16.2652 112.261 15.6818C112.261 15.0985 112.169 14.5549 111.983 14.0511C111.797 13.5473 111.511 13.1402 111.125 12.8295C110.739 12.5189 110.246 12.3636 109.648 12.3636C109.049 12.3636 108.557 12.5189 108.17 12.8295C107.784 13.1402 107.498 13.5473 107.312 14.0511C107.127 14.5549 107.034 15.0985 107.034 15.6818C107.034 16.2652 107.127 16.8068 107.312 17.3068C107.498 17.8068 107.784 18.2102 108.17 18.517C108.557 18.8239 109.049 18.9773 109.648 18.9773ZM115.831 20V8.36364H117.172V12.6591H117.286C117.384 12.5076 117.52 12.3144 117.695 12.0795C117.873 11.8409 118.126 11.6288 118.456 11.4432C118.789 11.2538 119.24 11.1591 119.808 11.1591C120.543 11.1591 121.191 11.3428 121.751 11.7102C122.312 12.0777 122.75 12.5985 123.064 13.2727C123.378 13.947 123.536 14.7424 123.536 15.6591C123.536 16.5833 123.378 17.3845 123.064 18.0625C122.75 18.7367 122.314 19.2595 121.757 19.6307C121.2 19.9981 120.558 20.1818 119.831 20.1818C119.27 20.1818 118.821 20.089 118.484 19.9034C118.147 19.714 117.888 19.5 117.706 19.2614C117.524 19.0189 117.384 18.8182 117.286 18.6591H117.126V20H115.831ZM117.149 15.6364C117.149 16.2955 117.246 16.8769 117.439 17.3807C117.632 17.8807 117.914 18.2727 118.286 18.5568C118.657 18.8371 119.111 18.9773 119.649 18.9773C120.21 18.9773 120.678 18.8295 121.053 18.5341C121.431 18.2348 121.715 17.8333 121.905 17.3295C122.098 16.822 122.195 16.2576 122.195 15.6364C122.195 15.0227 122.1 14.4697 121.911 13.9773C121.725 13.4811 121.443 13.089 121.064 12.8011C120.689 12.5095 120.217 12.3636 119.649 12.3636C119.104 12.3636 118.645 12.5019 118.274 12.7784C117.903 13.0511 117.623 13.4337 117.433 13.9261C117.244 14.4148 117.149 14.9848 117.149 15.6364ZM131.768 13.2273L130.564 13.5682C130.488 13.3674 130.376 13.1723 130.229 12.983C130.085 12.7898 129.888 12.6307 129.638 12.5057C129.388 12.3807 129.068 12.3182 128.678 12.3182C128.143 12.3182 127.698 12.4413 127.342 12.6875C126.99 12.9299 126.814 13.2386 126.814 13.6136C126.814 13.947 126.935 14.2102 127.178 14.4034C127.42 14.5966 127.799 14.7576 128.314 14.8864L129.609 15.2045C130.39 15.3939 130.971 15.6837 131.354 16.0739C131.736 16.4602 131.928 16.9583 131.928 17.5682C131.928 18.0682 131.784 18.5152 131.496 18.9091C131.212 19.303 130.814 19.6136 130.303 19.8409C129.791 20.0682 129.196 20.1818 128.518 20.1818C127.628 20.1818 126.892 19.9886 126.308 19.6023C125.725 19.2159 125.356 18.6515 125.2 17.9091L126.473 17.5909C126.594 18.0606 126.823 18.4129 127.161 18.6477C127.501 18.8826 127.946 19 128.496 19C129.121 19 129.617 18.8674 129.984 18.6023C130.356 18.3333 130.541 18.0114 130.541 17.6364C130.541 17.3333 130.435 17.0795 130.223 16.875C130.011 16.6667 129.685 16.5114 129.246 16.4091L127.791 16.0682C126.992 15.8788 126.405 15.5852 126.03 15.1875C125.659 14.786 125.473 14.2841 125.473 13.6818C125.473 13.1894 125.611 12.7538 125.888 12.375C126.168 11.9962 126.549 11.6989 127.03 11.483C127.515 11.267 128.064 11.1591 128.678 11.1591C129.541 11.1591 130.219 11.3485 130.712 11.7273C131.208 12.1061 131.56 12.6061 131.768 13.2273Z" fill="black"/>
</svg>
